# xmcd CD database file
#
# Track frame offsets:
#	150
#	14964
#	28249
#	41462
#	56359
#	76130
#	87760
#	108111
#	124415
#	136119
#	161489
#	177188
#	195939
#	212205
#	226086
#
# Disc length: 3235 seconds
#
# Revision: 0
# Processed by: cddbd v1.5.2PL0 Copyright (c) Steve Scherf et al.
# Submitted via: CDex 1.51
#
DISCID=ba0ca10f
DTITLE=Scott Williams - Going Through The Times
DYEAR=1900
DGENRE=Blues
TTITLE0=I Got A Woman
TTITLE1=The Most Beautiful Girl
TTITLE2=Take These Chains From My Heart
TTITLE3=The Good Bad Blues
TTITLE4=Have I Told You Lately
TTITLE5=Mercury Blues
TTITLE6=She's A Woman, She's A Lady
TTITLE7=Old Time Rock'n Roll
TTITLE8=All Because Of You
TTITLE9=I'm Your Hootchi Cootchi Man
TTITLE10=Shine Your Light On Me
TTITLE11=Which Brindge To Cross
TTITLE12=Cajun Moon
TTITLE13=Working Man's Blues
TTITLE14=Going Home
EXTD=
EXTT0=
EXTT1=
EXTT2=
EXTT3=
EXTT4=
EXTT5=
EXTT6=
EXTT7=
EXTT8=
EXTT9=
EXTT10=
EXTT11=
EXTT12=
EXTT13=
EXTT14=
PLAYORDER=
